# xmcd
#
# Track frame offsets:
#	150
#	15859
#	30616
#	47032
#	64034
#	80461
#	94804
#	109816
#	123901
#	138341
#	152483
#	168616
#	185408
#	201376
#	217906
#	236055
#	251463
#	265995
#	280910
#	296948
#	312365
#	327116
#
# Disc length: 4561 seconds
# Revision: 0
# Processed by: cddbd v1.5.2PL0 Copyright (c) Steve Scherf et al.
# Submitted via: dBpowerAMP V12.0
#
DISCID=3b11cf16
DTITLE=Various Artist - Gnadenlos Sommer Folge4 CD2
DYEAR=2003
DGENRE=Discofox
TTITLE0=Nico Gemba - Ich will mit dir (Radio Mix)
TTITLE1=Tina York - Wie kann ich von dir träumen wenn du mich nicht schlafen lässt
TTITLE2=Matthias Carras - Mitten in der Nacht
TTITLE3=Oliver Frank - Knall auf Fall (Remix)
TTITLE4=Modern Talking - Juliet
TTITLE5=Michael Heck - Rosanna
TTITLE6=Nils Rubio - Ich bin noch zu haben
TTITLE7=Bernhard Brink - Ich will (Dance Version)
TTITLE8=Rafael - Du hast mich angemacht
TTITLE9=Bert Silver - Schlaflose Nächte
TTITLE10=Frank Lars - Es gibt dich nicht mehr
TTITLE11=Modern Talking - When the Sky rained Fire
TTITLE12=Nico Gemba - No more Casanova (Latino Mix)
TTITLE13=Oliver Hardt - Ist das zu viel verlangt
TTITLE14=Roland Kaiser - Sag ihm dass ich dich liebe
TTITLE15=Sandy Wagner - Was für ein Gefühl
TTITLE16=Matthias Carras - Dumm gelaufen
TTITLE17=Torsten Krause - Ganz schön gemein
TTITLE18=Frank Lars - Leck mich doch am Arsch
TTITLE19=Michael Wendler - Hat er auch (Radio Mix)
TTITLE20=Ulli Bastian - Du hast mich verzaubert
TTITLE21=Uta Bresan - Ausgerechnet du
EXTD=
EXTT0=
EXTT1=
EXTT2=
EXTT3=
EXTT4=
EXTT5=
EXTT6=
EXTT7=
EXTT8=
EXTT9=
EXTT10=
EXTT11=
EXTT12=
EXTT13=
EXTT14=
EXTT15=
EXTT16=
EXTT17=
EXTT18=
EXTT19=
EXTT20=
EXTT21=
PLAYORDER=
